<?xml version="1.0" ?><svg height="32" id="svg17515" version="1.1" viewBox="0 0 32 32.000001" width="32" xmlns="http://www.w3.org/2000/svg" xmlns:cc="http://creativecommons.org/ns#" xmlns:dc="http://purl.org/dc/elements/1.1/" xmlns:inkscape="http://www.inkscape.org/namespaces/inkscape" xmlns:rdf="http://www.w3.org/1999/02/22-rdf-syntax-ns#" xmlns:sodipodi="http://sodipodi.sourceforge.net/DTD/sodipodi-0.dtd" xmlns:svg="http://www.w3.org/2000/svg"><defs id="defs17517"><clipPath clipPathUnits="userSpaceOnUse" id="clipPath32617-9-8-8-9"><circle cx="-64.623535" cy="50.047192" id="path32619-2-3-5-1" r="38.553814" style="fill:#4bb7c0;fill-opacity:1;stroke:none" transform="matrix(9.3443438,0,0,9.3443438,-627.91229,-5859.5225)"/></clipPath><clipPath clipPathUnits="userSpaceOnUse" id="clipPath19550"><circle cx="-64.623535" cy="50.047192" id="circle19552" r="38.553814" style="fill:#4bb7c0;fill-opacity:1;stroke:none" transform="matrix(9.3443438,0,0,9.3443438,-627.91229,-5859.5225)"/></clipPath></defs><g id="layer1" transform="translate(0,-1020.3622)"><g id="g41646" style="display:inline" transform="translate(689.69731,81.07513)"><path d="m -673.31836,950.92564 c -1.47823,-0.0581 -2.97602,0.35178 -4.25586,1.23633 -2.55967,1.7691 -3.64481,5.02103 -2.66016,7.97266 a 0.50028339,0.50028339 0 1 0 0.94922,-0.31641 c -0.8453,-2.5339 0.0819,-5.31525 2.2793,-6.83398 2.19741,-1.51873 5.12769,-1.4032 7.19922,0.2832 2.07153,1.68639 2.77971,4.53239 1.73828,6.99219 a 0.50004997,0.50004997 0 1 0 0.91992,0.38867 c 1.21312,-2.86531 0.38765,-6.1938 -2.02539,-8.15821 -1.20652,-0.9822 -2.6663,-1.50639 -4.14453,-1.56445 z" id="path39974" style="color:#000000;font-style:normal;font-variant:normal;font-weight:normal;font-stretch:normal;font-size:medium;line-height:normal;font-family:sans-serif;text-indent:0;text-align:start;text-decoration:none;text-decoration-line:none;text-decoration-style:solid;text-decoration-color:#000000;letter-spacing:normal;word-spacing:normal;text-transform:none;direction:ltr;writing-mode:lr-tb;baseline-shift:baseline;text-anchor:start;white-space:normal;clip-rule:nonzero;display:inline;overflow:visible;visibility:visible;opacity:1;isolation:auto;mix-blend-mode:normal;color-interpolation:sRGB;color-interpolation-filters:linearRGB;solid-color:#000000;solid-opacity:1;fill:#e1e1e6;fill-opacity:1;fill-rule:nonzero;stroke:none;stroke-width:0.99999994;stroke-linecap:round;stroke-linejoin:round;stroke-miterlimit:4;stroke-dasharray:none;stroke-dashoffset:0;stroke-opacity:1;color-rendering:auto;image-rendering:auto;shape-rendering:auto;text-rendering:auto;enable-background:accumulate"/><path d="m -679.94727,957.69618 c -0.22307,1.9e-4 -0.43724,0.0566 -0.64257,0.13868 -0.002,0.1337 0.005,0.26824 0.0117,0.40234 0.20191,-0.079 0.4121,-0.13459 0.63085,-0.13477 0.13341,1.2e-4 0.26153,0.0203 0.38672,0.0488 -0.005,-0.13475 -0.0253,-0.27008 -0.0215,-0.40429 7e-5,-0.003 -8e-5,-0.005 0,-0.008 -0.11844,-0.0254 -0.2396,-0.0429 -0.36524,-0.043 z" id="path41419" style="display:inline;opacity:1;fill:#d1d1d5;fill-opacity:1;stroke:none;stroke-width:2;stroke-linecap:butt;stroke-linejoin:miter;stroke-miterlimit:4;stroke-dasharray:none;stroke-opacity:1"/><path d="m -673.32617,949.92564 c -1.55525,-0.0522 -3.12414,0.34722 -4.50195,1.20703 -2.75563,1.71963 -4.19992,4.93928 -3.6504,8.14063 a 0.50042973,0.50042973 0 1 0 0.98633,-0.16992 c -0.48129,-2.80389 0.77986,-5.61692 3.19336,-7.12305 2.4135,-1.50613 5.49363,-1.40275 7.80078,0.26172 2.30716,1.66446 3.37708,4.55693 2.70899,7.32226 a 0.50005,0.50005 0 1 0 0.9707,0.23438 c 0.7628,-3.15733 -0.4615,-6.46678 -3.0957,-8.36719 -1.3171,-0.9502 -2.85686,-1.45369 -4.41211,-1.50586 z" id="circle39988" style="color:#000000;font-style:normal;font-variant:normal;font-weight:normal;font-stretch:normal;font-size:medium;line-height:normal;font-family:sans-serif;text-indent:0;text-align:start;text-decoration:none;text-decoration-line:none;text-decoration-style:solid;text-decoration-color:#000000;letter-spacing:normal;word-spacing:normal;text-transform:none;direction:ltr;writing-mode:lr-tb;baseline-shift:baseline;text-anchor:start;white-space:normal;clip-rule:nonzero;display:inline;overflow:visible;visibility:visible;opacity:1;isolation:auto;mix-blend-mode:normal;color-interpolation:sRGB;color-interpolation-filters:linearRGB;solid-color:#000000;solid-opacity:1;fill:#43b6c2;fill-opacity:1;fill-rule:nonzero;stroke:none;stroke-width:1;stroke-linecap:round;stroke-linejoin:round;stroke-miterlimit:4;stroke-dasharray:none;stroke-dashoffset:0;stroke-opacity:1;color-rendering:auto;image-rendering:auto;shape-rendering:auto;text-rendering:auto;enable-background:accumulate"/><path d="m -672.73438,948.9608 c -1.67311,-0.16033 -3.39176,0.14684 -4.94921,0.9414 -3.11491,1.58914 -5.02852,4.84325 -4.9043,8.33789 a 0.50034398,0.50034398 0 1 0 1,-0.0371 c -0.1105,-3.1086 1.58857,-5.99657 4.35937,-7.41016 2.77081,-1.41359 6.10472,-1.09376 8.55664,0.82031 2.45193,1.91407 3.5719,5.07247 2.87305,8.10352 a 0.50007857,0.50007857 0 1 0 0.97461,0.22461 c 0.78563,-3.40746 -0.47405,-6.96347 -3.23047,-9.11524 -1.37821,-1.07588 -3.00657,-1.7049 -4.67969,-1.86523 z" id="circle39990" style="color:#000000;font-style:normal;font-variant:normal;font-weight:normal;font-stretch:normal;font-size:medium;line-height:normal;font-family:sans-serif;text-indent:0;text-align:start;text-decoration:none;text-decoration-line:none;text-decoration-style:solid;text-decoration-color:#000000;letter-spacing:normal;word-spacing:normal;text-transform:none;direction:ltr;writing-mode:lr-tb;baseline-shift:baseline;text-anchor:start;white-space:normal;clip-rule:nonzero;display:inline;overflow:visible;visibility:visible;opacity:1;isolation:auto;mix-blend-mode:normal;color-interpolation:sRGB;color-interpolation-filters:linearRGB;solid-color:#000000;solid-opacity:1;fill:#88b03c;fill-opacity:1;fill-rule:nonzero;stroke:none;stroke-width:1;stroke-linecap:round;stroke-linejoin:round;stroke-miterlimit:4;stroke-dasharray:none;stroke-dashoffset:0;stroke-opacity:1;color-rendering:auto;image-rendering:auto;shape-rendering:auto;text-rendering:auto;enable-background:accumulate"/><path d="m -672.93555,945.93736 c -2.16651,-0.11914 -4.36502,0.34849 -6.34765,1.41602 -3.96527,2.13505 -6.40248,6.31385 -6.3086,10.8164 a 0.50011555,0.50011555 0 1 0 1,-0.0215 c -0.0861,-4.12928 2.14667,-7.95601 5.78321,-9.91406 3.63653,-1.95806 8.06104,-1.71414 11.46093,0.63085 3.3999,2.345 5.19853,6.39335 4.66016,10.48829 a 0.50039118,0.50039118 0 1 0 0.99219,0.13086 c 0.58704,-4.46511 -1.3787,-8.88638 -5.08594,-11.44336 -1.85362,-1.27849 -3.98779,-1.98438 -6.1543,-2.10352 z" id="circle39996" style="color:#000000;font-style:normal;font-variant:normal;font-weight:normal;font-stretch:normal;font-size:medium;line-height:normal;font-family:sans-serif;text-indent:0;text-align:start;text-decoration:none;text-decoration-line:none;text-decoration-style:solid;text-decoration-color:#000000;letter-spacing:normal;word-spacing:normal;text-transform:none;direction:ltr;writing-mode:lr-tb;baseline-shift:baseline;text-anchor:start;white-space:normal;clip-rule:nonzero;display:inline;overflow:visible;visibility:visible;opacity:1;isolation:auto;mix-blend-mode:normal;color-interpolation:sRGB;color-interpolation-filters:linearRGB;solid-color:#000000;solid-opacity:1;fill:#ff766c;fill-opacity:1;fill-rule:nonzero;stroke:none;stroke-width:1;stroke-linecap:round;stroke-linejoin:round;stroke-miterlimit:4;stroke-dasharray:none;stroke-dashoffset:0;stroke-opacity:1;color-rendering:auto;image-rendering:auto;shape-rendering:auto;text-rendering:auto;enable-background:accumulate"/><path d="m -672.62695,946.96275 c -1.99574,-0.17622 -4.03894,0.19238 -5.89844,1.125 -3.719,1.86525 -6.06836,5.67149 -6.06836,9.83203 a 0.50005,0.50005 0 1 0 1,0 c 0,-3.78431 2.13488,-7.24287 5.51758,-8.93945 3.3827,-1.69658 7.42983,-1.33927 10.46289,0.92383 3.03306,2.2631 4.52838,6.04181 3.86523,9.76758 a 0.50005,0.50005 0 1 0 0.98438,0.17578 c 0.72907,-4.09617 -0.91736,-8.25606 -4.25195,-10.74414 -1.6673,-1.24405 -3.6156,-1.9644 -5.61133,-2.14063 z" id="circle39994" style="color:#000000;font-style:normal;font-variant:normal;font-weight:normal;font-stretch:normal;font-size:medium;line-height:normal;font-family:sans-serif;text-indent:0;text-align:start;text-decoration:none;text-decoration-line:none;text-decoration-style:solid;text-decoration-color:#000000;letter-spacing:normal;word-spacing:normal;text-transform:none;direction:ltr;writing-mode:lr-tb;baseline-shift:baseline;text-anchor:start;white-space:normal;clip-rule:nonzero;display:inline;overflow:visible;visibility:visible;opacity:1;isolation:auto;mix-blend-mode:normal;color-interpolation:sRGB;color-interpolation-filters:linearRGB;solid-color:#000000;solid-opacity:1;fill:#fa8f48;fill-opacity:1;fill-rule:nonzero;stroke:none;stroke-width:1;stroke-linecap:round;stroke-linejoin:round;stroke-miterlimit:4;stroke-dasharray:none;stroke-dashoffset:0;stroke-opacity:1;color-rendering:auto;image-rendering:auto;shape-rendering:auto;text-rendering:auto;enable-background:accumulate"/><path d="m -673.01367,947.93736 c -1.82432,-0.10588 -3.67736,0.2868 -5.34571,1.19141 -3.33669,1.80921 -5.36395,5.35523 -5.22851,9.14843 a 0.50034417,0.50034417 0 1 0 1,-0.0371 c -0.12197,-3.41591 1.70027,-6.60316 4.70508,-8.23242 3.0048,-1.62925 6.66868,-1.41709 9.46484,0.54883 2.79616,1.96592 4.23702,5.34379 3.7207,8.72266 a 0.50005,0.50005 0 1 0 0.98829,0.15039 c 0.57333,-3.75207 -1.02782,-7.50639 -4.13282,-9.68946 -1.5525,-1.09153 -3.34756,-1.69685 -5.17187,-1.80273 z" id="circle39992" style="color:#000000;font-style:normal;font-variant:normal;font-weight:normal;font-stretch:normal;font-size:medium;line-height:normal;font-family:sans-serif;text-indent:0;text-align:start;text-decoration:none;text-decoration-line:none;text-decoration-style:solid;text-decoration-color:#000000;letter-spacing:normal;word-spacing:normal;text-transform:none;direction:ltr;writing-mode:lr-tb;baseline-shift:baseline;text-anchor:start;white-space:normal;clip-rule:nonzero;display:inline;overflow:visible;visibility:visible;opacity:1;isolation:auto;mix-blend-mode:normal;color-interpolation:sRGB;color-interpolation-filters:linearRGB;solid-color:#000000;solid-opacity:1;fill:#ffd158;fill-opacity:1;fill-rule:nonzero;stroke:none;stroke-width:1;stroke-linecap:round;stroke-linejoin:round;stroke-miterlimit:4;stroke-dasharray:none;stroke-dashoffset:0;stroke-opacity:1;color-rendering:auto;image-rendering:auto;shape-rendering:auto;text-rendering:auto;enable-background:accumulate"/><path d="m -681.53125,956.97939 c -0.0456,0.38289 -0.0654,0.76961 -0.0547,1.16015 0.008,0.29224 0.0446,0.58549 0.084,0.87891 l 1,0 c -0.0625,-0.39762 -0.083,-0.79365 -0.0781,-1.1875 -0.10167,0.0399 -0.20559,0.076 -0.29883,0.13477 -0.14543,-0.38109 -0.37218,-0.7134 -0.65234,-0.98633 z" id="path41436" style="display:inline;opacity:1;fill:#42aab5;fill-opacity:1;stroke:none;stroke-width:2;stroke-linecap:butt;stroke-linejoin:miter;stroke-miterlimit:4;stroke-dasharray:none;stroke-opacity:1"/><path d="m -682.44141,956.3954 c -0.0221,0.12777 -0.0341,0.25789 -0.0508,0.38672 0.35062,0.13062 0.67186,0.32662 0.94141,0.58399 0.006,-0.12956 0.002,-0.26076 0.0176,-0.38868 -0.26031,-0.25309 -0.56968,-0.44824 -0.90821,-0.58203 z" id="path41441" style="display:inline;opacity:1;fill:#81a53c;fill-opacity:1;stroke:none;stroke-width:2;stroke-linecap:butt;stroke-linejoin:miter;stroke-miterlimit:4;stroke-dasharray:none;stroke-opacity:1"/><path d="m -683.41992,956.19814 c -0.0237,0.13512 -0.0387,0.27234 -0.0586,0.4082 0.0107,-1.2e-4 0.0205,-0.004 0.0312,-0.004 0.33297,1.1e-4 0.65274,0.0661 0.95313,0.17774 0.0165,-0.12822 0.0289,-0.25768 0.0508,-0.38477 -0.30657,-0.12092 -0.63435,-0.19373 -0.97656,-0.19726 z" id="path41446" style="display:inline;opacity:1;fill:#ecc355;fill-opacity:1;stroke:none;stroke-width:2;stroke-linecap:butt;stroke-linejoin:miter;stroke-miterlimit:4;stroke-dasharray:none;stroke-opacity:1"/><path d="m -683.44727,956.19618 c -0.37273,0 -0.72067,0.0883 -1.04296,0.22461 -0.018,0.13108 -0.0141,0.26642 -0.0273,0.39844 0.318,-0.1345 0.66739,-0.20793 1.0332,-0.21289 0.0191,-0.13614 0.033,-0.27306 0.0566,-0.4082 -0.007,-5e-5 -0.0129,-0.002 -0.0195,-0.002 z" id="path41451" style="display:inline;opacity:1;fill:#e78747;fill-opacity:1;stroke:none;stroke-width:2;stroke-linecap:butt;stroke-linejoin:miter;stroke-miterlimit:4;stroke-dasharray:none;stroke-opacity:1"/><path d="m -684.48633,956.41884 c -0.42283,0.17797 -0.79742,0.44765 -1.08398,0.79883 -0.008,0.13855 -0.008,0.27841 -0.01,0.41797 0.28379,-0.35173 0.64398,-0.64047 1.06641,-0.81836 0.013,-0.13208 0.009,-0.2674 0.0273,-0.39844 z" id="path41456" style="display:inline;opacity:1;fill:#ec7067;fill-opacity:1;stroke:none;stroke-width:2;stroke-linecap:butt;stroke-linejoin:miter;stroke-miterlimit:4;stroke-dasharray:none;stroke-opacity:1"/><path d="m -683.44728,956.60309 c -1.51879,0 -2.75,1.23122 -2.75,2.75 8.5e-4,0.0894 0.006,0.17871 0.0156,0.2676 -0.86734,0.11721 -1.51472,0.85718 -1.51563,1.7324 0,0.9665 0.7835,1.75 1.75,1.75 l 7.1621,0 c 1.069,-7.2e-4 1.75675,-0.92005 1.75,-1.75 -10e-4,-0.74191 -0.46995,-1.40248 -1.16992,-1.6484 -0.077,-0.90512 -0.83379,-1.60082 -1.74218,-1.6016 -0.32974,2.7e-4 -0.65269,0.0937 -0.93165,0.2695 -0.40651,-1.06523 -1.42819,-1.76912 -2.56835,-1.7695 z" id="path9239" style="display:inline;opacity:1;fill:#e6f3eb;fill-opacity:1;stroke:none;stroke-width:2;stroke-linecap:butt;stroke-linejoin:miter;stroke-miterlimit:4;stroke-dasharray:none;stroke-opacity:1"/><path d="m -666.8125,956.19618 c -0.32398,0.16391 -0.62661,0.37278 -0.89844,0.62891 0.0332,0.1779 0.0448,0.3587 0.0625,0.53906 0.27342,-0.27843 0.58456,-0.50215 0.91992,-0.67382 -0.0295,-0.16471 -0.0428,-0.332 -0.084,-0.49415 z" id="path41518" style="opacity:1;fill:#d1d1d5;fill-opacity:1;stroke:none;stroke-width:2;stroke-linecap:butt;stroke-linejoin:miter;stroke-miterlimit:4;stroke-dasharray:none;stroke-opacity:1"/><path d="m -665.88477,955.86025 c -0.31757,0.0698 -0.63337,0.18496 -0.9375,0.33984 0.0409,0.1607 0.0658,0.32493 0.0957,0.48828 0.30358,-0.15513 0.61968,-0.27443 0.9414,-0.33789 -0.0335,-0.16333 -0.0566,-0.32936 -0.0996,-0.49023 z" id="path41520" style="opacity:1;fill:#42aab5;fill-opacity:1;stroke:none;stroke-width:2;stroke-linecap:butt;stroke-linejoin:miter;stroke-miterlimit:4;stroke-dasharray:none;stroke-opacity:1"/><path d="m -665.14258,955.76845 c -0.24198,-1.6e-4 -0.49072,0.0366 -0.74219,0.0918 0.0429,0.16064 0.0681,0.32523 0.10157,0.48828 0.21482,-0.0422 0.42923,-0.0646 0.64062,-0.0644 0.12618,7e-5 0.24953,0.014 0.37305,0.0273 -0.0323,-0.17391 -0.0557,-0.34986 -0.0977,-0.52148 -0.0919,-0.007 -0.1849,-0.0214 -0.27539,-0.0215 z" id="path41522" style="opacity:1;fill:#81a53c;fill-opacity:1;stroke:none;stroke-width:2;stroke-linecap:butt;stroke-linejoin:miter;stroke-miterlimit:4;stroke-dasharray:none;stroke-opacity:1"/><path d="m -664.86328,955.78993 c 0.0421,0.1727 0.0711,0.34828 0.10351,0.52344 0.36676,0.0406 0.72048,0.1336 1.04883,0.28125 -0.0266,-0.18937 -0.0517,-0.3791 -0.0879,-0.5664 -0.35076,-0.12808 -0.70994,-0.20941 -1.06445,-0.23829 z" id="path41524" style="opacity:1;fill:#ecc355;fill-opacity:1;stroke:none;stroke-width:2;stroke-linecap:butt;stroke-linejoin:miter;stroke-miterlimit:4;stroke-dasharray:none;stroke-opacity:1"/><path d="m -663.79492,956.02822 c 0.0362,0.1877 0.0596,0.37855 0.0859,0.56836 0.41445,0.18673 0.78418,0.45467 1.09765,0.78515 -0.0127,-0.25081 -0.0332,-0.50168 -0.0625,-0.75 -0.34075,-0.25339 -0.72136,-0.45718 -1.12109,-0.60351 z" id="path41526" style="opacity:1;fill:#e78747;fill-opacity:1;stroke:none;stroke-width:2;stroke-linecap:butt;stroke-linejoin:miter;stroke-miterlimit:4;stroke-dasharray:none;stroke-opacity:1"/><path d="m -662.67578,956.62978 c 0.0284,0.24049 0.0298,0.48559 0.043,0.72851 0.30696,0.31779 0.56262,0.69114 0.73437,1.11719 0.0928,-0.042 0.19143,-0.0684 0.28906,-0.0957 0.006,-0.15574 0.0138,-0.31148 0.0137,-0.4668 -0.2285,-0.49875 -0.61116,-0.93497 -1.08008,-1.2832 z" id="path41528" style="opacity:1;fill:#ec7067;fill-opacity:1;stroke:none;stroke-width:2;stroke-linecap:butt;stroke-linejoin:miter;stroke-miterlimit:4;stroke-dasharray:none;stroke-opacity:1"/><path d="m -665.1417,956.28316 c 1.427,8.3e-4 2.71061,0.8679 3.24414,2.19141 0.25839,-0.11687 0.53868,-0.17745 0.82227,-0.17773 0.91746,0.002 1.71619,0.62719 1.9375,1.51757 1.10119,0.1643 1.91663,1.10928 1.91797,2.22266 0,1.24264 -1.00736,2.25 -2.25,2.25 l -8.70313,0 c -1.24264,0 -2.25,-1.00736 -2.25,-2.25 -6e-5,-1.06279 0.74354,-1.98068 1.78321,-2.20117 3.3e-4,-2.27833 1.86842,-3.55384 3.49804,-3.55274 z" id="path9114" style="opacity:1;fill:#e6f3eb;fill-opacity:1;stroke:none;stroke-width:2;stroke-linecap:butt;stroke-linejoin:miter;stroke-miterlimit:4;stroke-dasharray:none;stroke-opacity:1"/></g></g></svg>